<svg version="1.1" id="Layer_1" xmlns="http://www.w3.org/2000/svg" xmlns:xlink="http://www.w3.org/1999/xlink" x="0px" y="0px"
	 width="100%" viewBox="0 0 588 448" enable-background="new 0 0 588 448" xml:space="preserve">
<path fill="#FFFFFF" opacity="1.000000" stroke="none" 
	d="
M401.000000,449.000000 
	C267.365448,449.000000 134.230896,449.000000 1.048172,449.000000 
	C1.048172,299.734802 1.048172,150.469589 1.048172,1.102192 
	C196.884552,1.102192 392.769196,1.102192 588.826904,1.102192 
	C588.826904,150.333176 588.826904,299.666565 588.826904,449.000000 
	C526.469543,449.000000 463.984772,449.000000 401.000000,449.000000 
M291.539459,290.144012 
	C315.278717,313.821167 339.017975,337.498322 362.757202,361.175476 
	C363.173981,360.986908 363.590759,360.798309 364.007538,360.609711 
	C364.007538,293.741882 364.007538,226.874084 364.659241,160.174805 
	C387.396729,182.909210 410.097137,205.681046 432.927948,228.321320 
	C435.265991,230.639893 436.067261,232.939774 436.061249,236.139572 
	C435.972321,283.289795 436.000000,330.440247 436.000000,377.590637 
	C436.000000,379.257202 436.000000,380.923737 436.000000,383.524750 
	C460.583618,358.930878 484.291107,335.282776 507.840332,311.478119 
	C509.215607,310.087952 509.907349,307.431732 509.912292,305.362244 
	C510.026031,257.878906 509.965393,210.395142 510.075043,162.911774 
	C510.082642,159.628922 509.040009,157.420441 506.763824,155.163666 
	C487.715790,136.278000 468.779419,117.279648 449.813751,98.310936 
	C445.393585,93.890076 440.989929,89.452705 436.484680,84.928528 
	C428.311951,93.130920 420.460693,101.064125 412.550659,108.938286 
	C396.384705,125.030876 380.187103,141.091705 363.393585,156.859665 
	C339.365479,132.733719 315.337372,108.607773 290.997437,84.168724 
	C284.301910,90.982712 278.293793,97.202774 272.171265,103.308067 
	C254.145920,121.282631 236.075241,139.211700 217.416809,156.844528 
	C193.111801,133.435333 168.806778,110.026138 144.501770,86.616943 
	C145.481689,85.362923 145.004303,85.549644 144.671967,85.881584 
	C121.093086,109.432045 97.495102,132.963684 74.040169,156.637039 
	C72.748123,157.941116 72.087303,160.429504 72.083000,162.368744 
	C71.977112,210.024628 71.960556,257.680908 72.119110,305.336487 
	C72.126846,307.660217 73.274139,310.568115 74.896660,312.209900 
	C97.384735,334.964905 120.046013,357.548767 142.681427,380.157959 
	C143.539383,381.014954 144.563553,381.705536 146.000000,382.871002 
	C146.000000,380.313049 146.000000,378.499695 146.000000,376.686340 
	C146.000000,330.030029 146.046738,283.373566 145.913498,236.717621 
	C145.902557,232.880814 147.098434,230.273239 149.772400,227.622849 
	C171.311050,206.274185 192.709030,184.783630 214.166275,163.352707 
	C215.330048,162.190384 216.639511,161.173935 217.984024,161.010712 
	C217.984024,227.630173 217.984024,294.249634 217.984024,362.304626 
	C220.431091,359.966827 221.734222,358.765991 222.989029,357.516602 
	C245.632706,334.970795 268.270538,312.419098 291.539459,290.144012 
z"/>
<path fill="#A1A0A4" opacity="1.000000" stroke="none" 
	d="
M217.881165,160.089600 
	C216.639511,161.173935 215.330048,162.190384 214.166275,163.352707 
	C192.709030,184.783630 171.311050,206.274185 149.772400,227.622849 
	C147.098434,230.273239 145.902557,232.880814 145.913498,236.717621 
	C146.046738,283.373566 146.000000,330.030029 146.000000,376.686340 
	C146.000000,378.499695 146.000000,380.313049 146.000000,382.871002 
	C144.563553,381.705536 143.539383,381.014954 142.681427,380.157959 
	C120.046013,357.548767 97.384735,334.964905 74.896660,312.209900 
	C73.274139,310.568115 72.126846,307.660217 72.119110,305.336487 
	C71.960556,257.680908 71.977112,210.024628 72.083000,162.368744 
	C72.087303,160.429504 72.748123,157.941116 74.040169,156.637039 
	C97.495102,132.963684 121.093086,109.432045 144.671967,85.881584 
	C145.004303,85.549644 145.481689,85.362923 144.501770,86.616943 
	C168.806778,110.026138 193.111801,133.435333 217.743011,157.291779 
	C218.113419,158.124771 218.157639,158.510498 218.116394,159.193604 
	C217.981003,159.690521 217.931076,159.890045 217.881165,160.089600 
z"/>
<path fill="#542988" opacity="1.000000" stroke="none" 
	d="
M364.002533,157.165604 
	C380.187103,141.091705 396.384705,125.030876 412.550659,108.938286 
	C420.460693,101.064125 428.311951,93.130920 436.484680,84.928528 
	C440.989929,89.452705 445.393585,93.890076 449.813751,98.310936 
	C468.779419,117.279648 487.715790,136.278000 506.763824,155.163666 
	C509.040009,157.420441 510.082642,159.628922 510.075043,162.911774 
	C509.965393,210.395142 510.026031,257.878906 509.912292,305.362244 
	C509.907349,307.431732 509.215607,310.087952 507.840332,311.478119 
	C484.291107,335.282776 460.583618,358.930878 436.000000,383.524750 
	C436.000000,380.923737 436.000000,379.257202 436.000000,377.590637 
	C436.000000,330.440247 435.972321,283.289795 436.061249,236.139572 
	C436.067261,232.939774 435.265991,230.639893 432.927948,228.321320 
	C410.097137,205.681046 387.396729,182.909210 364.271790,159.857712 
	C363.714691,159.245621 363.465485,159.054291 363.140320,158.705627 
	C363.430176,158.018295 363.716339,157.591949 364.002533,157.165604 
z"/>
<path fill="#C1D72F" opacity="1.000000" stroke="none" 
	d="
M363.698059,157.012634 
	C363.716339,157.591949 363.430176,158.018295 362.954895,158.990448 
	C343.654694,178.667526 324.559174,197.814407 305.421631,216.919174 
	C300.628021,221.704605 295.699158,226.354553 290.540894,230.922714 
	C266.233521,206.817856 242.217682,182.857040 218.201874,158.896225 
	C218.157639,158.510498 218.113419,158.124771 218.045761,157.448822 
	C236.075241,139.211700 254.145920,121.282631 272.171265,103.308067 
	C278.293793,97.202774 284.301910,90.982712 290.997437,84.168724 
	C315.337372,108.607773 339.365479,132.733719 363.698059,157.012634 
z"/>
<path fill="#9397CA" opacity="1.000000" stroke="none" 
	d="
M290.832458,231.066742 
	C295.699158,226.354553 300.628021,221.704605 305.421631,216.919174 
	C324.559174,197.814407 343.654694,178.667526 362.951233,159.251434 
	C363.465485,159.054291 363.714691,159.245621 363.945923,159.773438 
	C364.007538,226.874084 364.007538,293.741882 364.007538,360.609711 
	C363.590759,360.798309 363.173981,360.986908 362.757202,361.175476 
	C339.017975,337.498322 315.278717,313.821167 291.249939,289.547302 
	C290.917755,269.655945 290.875092,250.361343 290.832458,231.066742 
z"/>
<path fill="#542988" opacity="1.000000" stroke="none" 
	d="
M290.540894,230.922699 
	C290.875092,250.361343 290.917755,269.655945 290.934998,289.409607 
	C268.270538,312.419098 245.632706,334.970795 222.989029,357.516602 
	C221.734222,358.765991 220.431091,359.966827 217.984024,362.304626 
	C217.984024,294.249634 217.984024,227.630173 217.932587,160.550140 
	C217.931076,159.890045 217.981003,159.690521 218.116394,159.193604 
	C242.217682,182.857040 266.233521,206.817856 290.540894,230.922699 
z"/>
</svg>